General

Format                           : Matroska
File size                        : 222 MiB & 270 MiB
Duration                         : 1h 0mn & 59mn 31s
Overall bit rate                 : 511 Kbps
Encoded date                     : UTC 2012-03-03 03:07:03
Writing application              : mkvmerge v5.3.0 ('I could have danced') built on Feb  9 2012 10:38:07
Writing library                  : libebml v1.2.3 + libmatroska v1.3.0

Video

ID                               : 1
Format                           : AVC
Format/Info                      : Advanced Video Codec
Format profile                   : High@L5.0
Format settings, CABAC           : Yes
Format settings, ReFrames        : 16 frames
Muxing mode                      : Header stripping
Codec ID                         : V_MPEG4/ISO/AVC
Duration                         : 1h 0mn
Bit rate                         : 445 Kbps
Width                            : 1 280 pixels
Height                           : 720 pixels
Display aspect ratio             : 16:9
Frame rate                       : 23.976 fps
Color space                      : YUV
Chroma subsampling               : 4:2:0
Bit depth                        : 8 bits
Scan type                        : Progressive
Bits/(Pixel*Frame)               : 0.020
Stream size                      : 193 MiB (87%)

Audio

ID                               : 2
Format                           : Vorbis
Format settings, Floor           : 1
Codec ID                         : A_VORBIS
Duration                         : 1h 0mn
Bit rate mode                    : Constant
Bit rate                         : 56.0 Kbps
Channel(s)                       : 2 channels
Sampling rate                    : 48.0 KHz
Compression mode                 : Lossy
Stream size                      : 24.3 MiB (11%)
Writing library                  : aoTuV 20110424 (UTC 2011-04-24)

Text #1
ID                               : 3
Format                           : ASS
Codec ID                         : S_TEXT/ASS
Codec ID/Info                    : Advanced Sub Station Alpha
Compression mode                 : Lossless
Language                         : English

Text #2
ID                               : 4
Format                           : ASS
Codec ID                         : S_TEXT/ASS
Codec ID/Info                    : Advanced Sub Station Alpha
Compression mode                 : Lossless
Title                            : Without karaokê or spell notes
Language                         : English

Menu
00:00:00.080                     : en:Prologue
00:00:39.170                     : en:Opening
00:02:37.580                     : en:Main
00:56:40.270                     : en:Ending
00:59:23.270                     : en:Preview
